<?xml version="1.0" encoding="UTF-8"?>
<svg id="Layer_2" data-name="Layer 2" xmlns="http://www.w3.org/2000/svg" xmlns:xlink="http://www.w3.org/1999/xlink" viewBox="0 0 837.68 185.98">
  <defs>
    <style>
      .cls-1 {
        fill: url(#linear-gradient-8);
      }

      .cls-1, .cls-2, .cls-3, .cls-4, .cls-5, .cls-6, .cls-7, .cls-8, .cls-9, .cls-10, .cls-11, .cls-12, .cls-13 {
        stroke-width: 0px;
      }

      .cls-1, .cls-2, .cls-3, .cls-4, .cls-5, .cls-7, .cls-8, .cls-9, .cls-10, .cls-11, .cls-12, .cls-13 {
        fill-rule: evenodd;
      }

      .cls-2 {
        fill: url(#linear-gradient-11);
      }

      .cls-3 {
        fill: url(#linear-gradient-7);
      }

      .cls-4 {
        fill: url(#linear-gradient-9);
      }

      .cls-5 {
        fill: url(#linear-gradient-3);
      }

      .cls-7 {
        fill: url(#linear-gradient);
      }

      .cls-8 {
        fill: url(#linear-gradient-2);
      }

      .cls-9 {
        fill: url(#linear-gradient-5);
      }

      .cls-10 {
        fill: url(#linear-gradient-12);
      }

      .cls-11 {
        fill: url(#linear-gradient-6);
      }

      .cls-12 {
        fill: url(#linear-gradient-4);
      }

      .cls-13 {
        fill: url(#linear-gradient-10);
      }
    </style>
    <linearGradient id="linear-gradient" x1="164.83" y1="25.69" x2="121.17" y2="89.04" gradientUnits="userSpaceOnUse">
      <stop offset="0" stop-color="#ee4023"/>
      <stop offset=".03" stop-color="#ea3e22"/>
      <stop offset=".3" stop-color="#c82c1e"/>
      <stop offset=".56" stop-color="#af201b"/>
      <stop offset=".8" stop-color="#a11819"/>
      <stop offset="1" stop-color="#9c1619"/>
    </linearGradient>
    <linearGradient id="linear-gradient-2" x1="157.93" y1="20.94" x2="114.27" y2="84.29" xlink:href="#linear-gradient"/>
    <linearGradient id="linear-gradient-3" x1="183.97" y1="115" x2="121.48" y2="117.57" gradientUnits="userSpaceOnUse">
      <stop offset="0" stop-color="#8bc53f"/>
      <stop offset=".07" stop-color="#7abd3f"/>
      <stop offset=".28" stop-color="#4ea940"/>
      <stop offset=".49" stop-color="#2c9a41"/>
      <stop offset=".68" stop-color="#138f41"/>
      <stop offset=".85" stop-color="#058841"/>
      <stop offset="1" stop-color="#008642"/>
    </linearGradient>
    <linearGradient id="linear-gradient-4" x1="183.77" y1="109.94" x2="121.28" y2="112.51" xlink:href="#linear-gradient-3"/>
    <linearGradient id="linear-gradient-5" x1="119.36" y1="179.82" x2="86.83" y2="125.03" gradientUnits="userSpaceOnUse">
      <stop offset="0" stop-color="#26a9e0"/>
      <stop offset=".19" stop-color="#2786c7"/>
      <stop offset=".42" stop-color="#2964ae"/>
      <stop offset=".64" stop-color="#2a4b9d"/>
      <stop offset=".84" stop-color="#2a3d92"/>
      <stop offset="1" stop-color="#2b388f"/>
    </linearGradient>
    <linearGradient id="linear-gradient-6" x1="124.45" y1="176.8" x2="91.91" y2="122.01" xlink:href="#linear-gradient-5"/>
    <linearGradient id="linear-gradient-7" x1="33.53" y1="157.03" x2="61.78" y2="102.24" gradientUnits="userSpaceOnUse">
      <stop offset="0" stop-color="#bc1a8c"/>
      <stop offset=".06" stop-color="#b31b8c"/>
      <stop offset=".32" stop-color="#91238d"/>
      <stop offset=".58" stop-color="#78288f"/>
      <stop offset=".81" stop-color="#6a2b8f"/>
      <stop offset="1" stop-color="#652d90"/>
    </linearGradient>
    <linearGradient id="linear-gradient-8" x1="37.86" y1="159.27" x2="66.11" y2="104.48" xlink:href="#linear-gradient-7"/>
    <linearGradient id="linear-gradient-9" x1="4.49" y1="74.84" x2="66.12" y2="66.28" gradientUnits="userSpaceOnUse">
      <stop offset="0" stop-color="#f5d834"/>
      <stop offset=".62" stop-color="#f8bb3c"/>
      <stop offset="1" stop-color="#faaf40"/>
    </linearGradient>
    <linearGradient id="linear-gradient-10" x1="4.76" y1="76.8" x2="66.4" y2="68.23" xlink:href="#linear-gradient-9"/>
    <linearGradient id="linear-gradient-11" x1="67.79" y1="3.93" x2="102.89" y2="54.43" gradientUnits="userSpaceOnUse">
      <stop offset="0" stop-color="#faaf40"/>
      <stop offset=".05" stop-color="#f9a83e"/>
      <stop offset=".32" stop-color="#f58634"/>
      <stop offset=".57" stop-color="#f26d2d"/>
      <stop offset=".81" stop-color="#f05f29"/>
      <stop offset="1" stop-color="#f05a28"/>
    </linearGradient>
    <linearGradient id="linear-gradient-12" x1="64.71" y1="6.07" x2="99.81" y2="56.57" xlink:href="#linear-gradient-11"/>
  </defs>
  <g id="Layer_1-2" data-name="Layer 1">
    <g>
      <g>
        <path class="cls-6" d="m528.93,64.99h22.95c1.46,9.78,2.91,19.61,4.41,29.44,1.62,10.67,3.28,21.34,4.96,32,.2,1.27.58,2.52.95,3.75,1.3,4.27,4.03,7.15,8.63,7.18,4.62.03,7.63-2.76,8.56-7.14,1.56-7.4,2.84-14.87,4-22.34,2.19-14.16,4.22-28.34,6.35-42.79h23.46c1.37,9.14,2.75,18.48,4.17,27.82,1.71,11.31,3.2,22.67,5.33,33.9.62,3.25,2.44,6.95,4.91,9.03,4.41,3.71,10.98,1.34,12.66-4.66,1.99-7.1,3.06-14.48,4.21-21.79,2.2-14.01,4.17-28.06,6.26-42.1.12-.77.5-1.51.79-2.34h22.84c-1.18,8.17-2.28,16.09-3.46,24-1.97,13.23-3.95,26.46-6.03,39.67-.45,2.86-1.21,5.68-2.07,8.45-6.18,19.98-20.5,24.25-40.36,19.47-6.88-1.65-11.59-7.05-13.29-13.69-2.43-9.46-3.78-19.22-5.29-28.9-.94-6.02-1.33-12.13-2.78-18.19-.98,9.55-1.61,19.15-3.07,28.63-1.07,6.94-2.56,13.98-5.1,20.5-3.26,8.37-10.22,12.7-19.27,13.05-4.5.17-9.13.37-13.52-.43-8.36-1.52-14.67-6.52-17.37-14.54-2.86-8.5-5.08-17.29-6.62-26.13-2.64-15.08-4.55-30.29-6.72-45.45-.29-2.04-.31-4.12-.47-6.42Z"/>
        <path class="cls-6" d="m336.57,76.04h-24.37c-.33-1.3-.62-2.52-.95-3.73-4.16-15.09-13.67-22.75-29.4-23.17-4.79-.13-9.71.28-14.38,1.31-9.73,2.13-16.41,8.2-19.38,17.73-4.93,15.8-4.83,31.83-.61,47.73,3.01,11.34,10.59,18.44,22.37,19.93,5.86.74,11.96.79,17.82.07,13.16-1.61,20.5-10.03,23.48-22.42.74-3.08,1.98-3.87,4.86-3.8,6.74.15,13.49.05,20.18.05,1.31,19.5-13.37,40.23-32.57,46.01-15,4.51-30.29,4.53-45.46,1-20.14-4.69-31.39-18.39-35.67-37.86-3.96-18.02-3.94-36.23.63-54.23,5.5-21.67,19.81-33.72,41.65-36.9,12.22-1.78,24.38-1.31,36.5,1.72,19.6,4.9,33.3,21.27,35.29,46.58Z"/>
        <path class="cls-6" d="m746.88,72.6V29.9h23.22c0,1.43,0,2.96,0,4.49,0,26,.13,52.01-.11,78.01-.06,6.08-.69,12.31-2.21,18.18-3.93,15.19-13.91,24.96-29.49,26.86-10.4,1.27-21.3,1.26-31.62-.39-13.55-2.16-22.82-10.9-26.76-24.35-4.48-15.25-4.51-30.63.77-45.66,5.12-14.58,16.14-21.68,31.26-23.57,8.71-1.09,17.02-.59,24.98,2.99,3.3,1.48,6.22,3.79,9.97,6.13Zm-46.41,38.28c-.11,17.97,4.76,25.27,19.86,26.97,13.36,1.5,24.11-3.12,25.53-18.19.61-6.49.35-13.16-.38-19.65-.62-5.59-3.56-10.26-8.81-13.12-17.15-9.34-35.08.37-36.18,19.65-.08,1.45-.01,2.9-.01,4.35Z"/>
        <path class="cls-6" d="m452.07,67.1c10.43-2.58,20.97-2.91,31.48-.53,18.47,4.19,28.77,16.08,30.35,34.9.27,3.27.33,6.28.49,9.56.01.21.02.96,0,1.19-.2,7.21-1.05,13.47-2.94,20.32-3.53,12.85-12.47,20.66-25.28,23.75-11.39,2.74-22.94,2.74-34.33-.05-15.35-3.76-23.87-14.21-26.72-29.29-2.23-11.77-2.17-23.64,1.22-35.27,1.76-6.03,4.55-11.02,8.33-14.97,0,0,7.36-6.82,17.41-9.61Zm39.37,45.16c0-.06,0-.16,0-.23,0-2.19.13-4.38-.02-6.56-.78-11.34-6.28-17.73-17.12-19.57-2.89-.49-5.93-.42-8.88-.21-10.29.76-16.51,6.2-18.03,16.39-.78,5.2-1.02,10.62-.52,15.85,1.23,12.88,5.6,17.98,18.41,19.55,15.25,1.87,23.78-3.66,25.97-17.97.37-2.44.18-4.75.18-7.25Z"/>
        <path class="cls-6" d="m375.39,155.95h-23.29c0-13.8-.1-27.32.04-40.85.09-8.7-.27-17.5.96-26.05,2.04-14.21,11.46-21.91,25.8-22.63,4.98-.25,9.96-.72,14.94-.87,4.97-.15,9.94-.03,15.21-.03v21.39c-5.44,0-10.72-.01-16,0-13.72.04-17.64,3.91-17.65,17.46-.01,15.33,0,30.67,0,46,0,1.76,0,3.51,0,5.58Z"/>
      </g>
      <g>
        <g>
          <path class="cls-7" d="m135.24,8.73c-16.11,8.09-34.46,25.92-40.56,49.4-3.35,12.91,11.29,22.9,22.04,15.01,21.82-16.01,47.92-11.96,65.88-.75,2.61,1.63,5.4-1.88,3.25-4.08-22.79-23.33-68.29-21.83-45.48-53.57,2.49-3.46-1.31-7.93-5.12-6.02Z"/>
          <path class="cls-8" d="m144.41,20.88c-5.12,5.87-3.02,14.89,4.18,17.88,4.36,1.81,9.53.61,12.65-2.95,5.14-5.87,3.03-14.92-4.19-17.9-4.36-1.8-9.53-.59-12.64,2.97Z"/>
        </g>
        <g>
          <path class="cls-5" d="m188.48,85.05c-15.07-9.91-39.68-16.89-63.06-10.43-12.86,3.55-14.19,21.22-1.98,26.59,24.78,10.89,34.32,35.52,33.59,56.68-.11,3.07,4.32,3.73,5.15.77,8.81-31.4-15.24-70.05,23.65-66.17,4.24.42,6.21-5.11,2.65-7.45Z"/>
          <path class="cls-12" d="m182.53,99.06c-7.64-1.5-14.4,4.83-13.39,12.56.61,4.68,4.24,8.56,8.87,9.48,7.66,1.52,14.43-4.84,13.41-12.58-.62-4.68-4.26-8.55-8.89-9.46Z"/>
        </g>
        <g>
          <path class="cls-9" d="m149,169.31c1.04-18-5.22-42.8-22.5-59.83-9.5-9.36-25.48-1.67-24.01,11.59,2.96,26.9-13.6,47.48-32.3,57.43-2.71,1.45-1.07,5.61,1.91,4.85,31.6-8.08,53.04-48.22,69.13-12.61,1.75,3.88,7.53,2.83,7.78-1.43Z"/>
          <path class="cls-11" d="m133.89,171.17c-2.52-7.37-11.39-10.06-17.58-5.32-3.75,2.87-5.29,7.95-3.77,12.43,2.51,7.39,11.41,10.08,17.6,5.32,3.74-2.88,5.28-7.96,3.75-12.43Z"/>
        </g>
        <g>
          <path class="cls-3" d="m56.28,177.25c16.11-8.09,34.46-25.92,40.56-49.4,3.36-12.91-11.29-22.9-22.04-15.01-21.82,16.01-47.92,11.96-65.88.75-2.61-1.63-5.39,1.88-3.25,4.08,22.8,23.33,68.29,21.83,45.48,53.56-2.49,3.46,1.31,7.93,5.12,6.02Z"/>
          <path class="cls-1" d="m47.12,165.1c5.12-5.87,3.02-14.89-4.18-17.88-4.36-1.81-9.53-.61-12.65,2.94-5.14,5.87-3.03,14.92,4.19,17.9,4.36,1.8,9.53.59,12.64-2.97Z"/>
        </g>
        <g>
          <path class="cls-4" d="m3.05,100.93c15.07,9.91,39.67,16.89,63.07,10.43,12.86-3.55,14.19-21.23,1.97-26.59-24.78-10.89-34.32-35.52-33.59-56.69.11-3.07-4.33-3.73-5.16-.77-8.81,31.41,15.24,70.05-23.65,66.17-4.24-.42-6.21,5.1-2.65,7.45Z"/>
          <path class="cls-13" d="m8.99,86.92c7.64,1.5,14.4-4.83,13.4-12.56-.61-4.68-4.24-8.56-8.87-9.48-7.66-1.52-14.44,4.84-13.41,12.58.62,4.68,4.26,8.55,8.89,9.46Z"/>
        </g>
        <g>
          <path class="cls-2" d="m42.53,16.67c-1.05,18,5.21,42.8,22.5,59.83,9.5,9.36,25.47,1.67,24.01-11.59-2.96-26.9,13.6-47.48,32.3-57.43,2.71-1.44,1.07-5.61-1.91-4.85-31.6,8.08-53.04,48.23-69.13,12.61-1.75-3.89-7.53-2.83-7.77,1.43Z"/>
          <path class="cls-10" d="m57.64,14.81c2.52,7.37,11.39,10.06,17.58,5.32,3.75-2.87,5.29-7.95,3.77-12.42-2.51-7.39-11.41-10.09-17.6-5.33-3.74,2.88-5.28,7.96-3.75,12.43Z"/>
        </g>
      </g>
      <path class="cls-6" d="m837.68,33.94c0,.36-.04,1.01-.11,1.94-1.65,13.01-2.48,34.34-2.48,64.02,0,6.32.07,15.84.22,28.56.14,12.72.19,24.21.33,29.99-6.09,0-.33,0-2.7,0s-6.42-.14-10.88,0c-4.46.14-9.36,0-11.58,0s4.77,0-1.55,0c0-1.51-.09-14.22.84-39.15.43-12.07.65-29.67.65-52.81,0-1.65-.36-2.48-1.08-2.48-1.72,0-4.44.58-8.14,1.72-3.7,1.15-6.45,1.72-8.24,1.72-1.65,0-2.48-.43-2.48-1.29s.09-2.16.27-3.88c.18-1.72.27-3.02.27-3.88,0-.79-.07-1.98-.22-3.56-.15-1.58-.22-2.76-.22-3.56,0-.93.79-1.72,2.37-2.37,4.17-1.72,8.58-4.67,13.26-8.84.22-.22,2.19-2.37,5.93-6.47,3.23-3.52,5.03-5.28,5.39-5.28-.07,0,2.91.65,8.95,1.94,2.23.29,5.46.83,9.7,1.62,1,.29,1.51.97,1.51,2.05Z"/>
    </g>
  </g>
</svg>