<svg width="5685" height="5279" viewBox="0 0 5685 5279" fill="none" xmlns="http://www.w3.org/2000/svg">
<path fill-rule="evenodd" clip-rule="evenodd" d="M4014.23 247.944C3536 477.773 2991.58 983.73 2810.11 1650.23C2710.49 2016.63 3145.19 2300.08 3464.24 2076.25C4111.76 1621.59 4886.41 1736.84 5419.69 2054.93C5497.01 2101.23 5579.91 2001.64 5516.17 1939.35C4839.74 1277.18 3489.32 1319.81 4166.1 418.817C4239.94 320.557 4127.09 193.651 4013.89 247.944H4014.23Z" fill="url(#paint0_linear_287_33)"/>
<path fill-rule="evenodd" clip-rule="evenodd" d="M4286.27 592.689C4134.4 759.232 4196.75 1015.37 4410.27 1100.31C4539.49 1151.61 4693.1 1117.63 4785.75 1016.71C4938.31 850.164 4875.62 593.355 4661.4 508.418C4531.83 457.456 4378.57 491.764 4286.27 592.689Z" fill="url(#paint1_linear_287_33)"/>
<path fill-rule="evenodd" clip-rule="evenodd" d="M5594.19 2414C5146.95 2132.88 4416.54 1934.69 3722.35 2118.22C3340.59 2219.15 3301.23 2720.77 3663.83 2872.99C4399.47 3182.1 4682.65 3881.24 4660.71 4481.8C4657.57 4569.07 4788.89 4587.72 4813.62 4503.78C5075.2 3612.44 4361.16 2515.59 5515.47 2625.51C5641.21 2637.5 5699.73 2480.62 5594.19 2414Z" fill="url(#paint2_linear_287_33)"/>
<path fill-rule="evenodd" clip-rule="evenodd" d="M5417.94 2812.04C5191.19 2769.4 4990.56 2949.27 5020.52 3168.44C5038.63 3301.34 5146.26 3411.59 5283.84 3437.57C5510.94 3480.54 5712.27 3300.34 5681.97 3080.51C5663.51 2947.6 5555.53 2837.69 5417.94 2812.04Z" fill="url(#paint3_linear_287_33)"/>
<path fill-rule="evenodd" clip-rule="evenodd" d="M4422.46 4805.89C4453.46 4294.94 4267.46 3591.13 3754.39 3107.49C3472.26 2841.68 2998.2 3060.19 3041.74 3436.24C3129.51 4199.67 2638.04 4783.91 2083.17 5066.36C2002.71 5107.33 2051.48 5225.58 2139.95 5203.93C3077.96 4974.76 3714.33 3835.28 4191.87 4846.19C4243.77 4956.44 4415.15 4926.47 4422.81 4805.56L4422.46 4805.89Z" fill="url(#paint4_linear_287_33)"/>
<path fill-rule="evenodd" clip-rule="evenodd" d="M3973.83 4858.52C3898.94 4649.34 3635.96 4573.06 3452.05 4707.63C3340.59 4789.23 3294.96 4933.46 3340.24 5060.37C3414.78 5270.21 3678.81 5346.49 3862.37 5211.59C3973.48 5129.98 4019.11 4985.42 3973.83 4858.85V4858.52Z" fill="url(#paint5_linear_287_33)"/>
<path fill-rule="evenodd" clip-rule="evenodd" d="M1670.42 5031.06C2148.66 4801.23 2693.07 4295.27 2874.2 3628.77C2973.82 3262.37 2539.12 2978.92 2220.06 3202.75C1572.55 3657.41 797.892 3542.16 264.622 3224.07C187.296 3177.77 104.397 3277.36 168.139 3339.65C844.567 4001.82 2194.98 3959.19 1518.21 4859.85C1444.37 4958.11 1557.22 5085.02 1670.42 5030.72V5031.06Z" fill="url(#paint6_linear_287_33)"/>
<path fill-rule="evenodd" clip-rule="evenodd" d="M1398.39 4686.31C1550.6 4519.77 1487.9 4263.63 1274.39 4179.02C1144.81 4127.39 991.556 4161.7 898.904 4262.63C746.342 4429.17 809.039 4685.98 1023.25 4770.91C1152.83 4821.88 1306.43 4787.57 1398.39 4686.64V4686.31Z" fill="url(#paint7_linear_287_33)"/>
<path fill-rule="evenodd" clip-rule="evenodd" d="M90.4641 2865C537.701 3146.12 1268.12 3344.31 1962.31 3161.11C2344.06 3060.19 2383.42 2558.56 2020.83 2406.34C1285.53 2097.24 1002.35 1398.09 1023.95 797.537C1027.08 710.268 895.42 691.615 871.038 775.553C609.802 1666.89 1323.5 2763.74 169.183 2653.82C43.0932 2641.83 -15.0754 2798.72 90.4641 2865.33V2865Z" fill="url(#paint8_linear_287_33)"/>
<path fill-rule="evenodd" clip-rule="evenodd" d="M266.708 2467.29C493.461 2509.93 694.091 2330.06 664.484 2110.89C646.372 1977.99 538.394 1867.74 401.158 1841.76C174.056 1798.79 -27.2697 1978.99 3.03367 2198.83C21.4944 2331.73 129.472 2441.65 267.057 2467.29H266.708Z" fill="url(#paint9_linear_287_33)"/>
<path fill-rule="evenodd" clip-rule="evenodd" d="M1262.2 473.112C1231.2 984.065 1416.85 1687.88 1930.26 2171.18C2212.4 2436.98 2686.46 2218.81 2642.92 1842.43C2555.14 1078.99 3046.61 494.762 3601.48 212.306C3681.94 171.336 3633.18 53.0906 3544.7 74.7412C2606.69 303.904 1970.32 1443.72 1492.78 432.475C1440.88 322.224 1269.51 352.202 1261.85 473.112H1262.2Z" fill="url(#paint10_linear_287_33)"/>
<path fill-rule="evenodd" clip-rule="evenodd" d="M1710.48 420.483C1785.36 629.661 2048.34 705.938 2232.25 571.371C2343.37 490.098 2389.34 345.539 2344.06 218.633C2269.52 8.7893 2005.5 -67.4873 1821.94 67.4124C1710.82 149.018 1665.2 293.578 1710.48 420.15V420.483Z" fill="url(#paint11_linear_287_33)"/>
<defs>
<linearGradient id="paint0_linear_287_33" x1="4892.34" y1="729.586" x2="3673.87" y2="2578.51" gradientUnits="userSpaceOnUse">
<stop stop-color="#EE4023"/>
<stop offset="0.03" stop-color="#EA3E22"/>
<stop offset="0.3" stop-color="#C82C1E"/>
<stop offset="0.56" stop-color="#AF201B"/>
<stop offset="0.8" stop-color="#A11819"/>
<stop offset="1" stop-color="#9C1619"/>
</linearGradient>
<linearGradient id="paint1_linear_287_33" x1="4687.53" y1="594.354" x2="3468.73" y2="2443.29" gradientUnits="userSpaceOnUse">
<stop stop-color="#EE4023"/>
<stop offset="0.03" stop-color="#EA3E22"/>
<stop offset="0.3" stop-color="#C82C1E"/>
<stop offset="0.56" stop-color="#AF201B"/>
<stop offset="0.8" stop-color="#A11819"/>
<stop offset="1" stop-color="#9C1619"/>
</linearGradient>
<linearGradient id="paint2_linear_287_33" x1="5460.44" y1="3264.37" x2="3605.95" y2="3344.12" gradientUnits="userSpaceOnUse">
<stop stop-color="#8BC53F"/>
<stop offset="0.07" stop-color="#7ABD3F"/>
<stop offset="0.28" stop-color="#4EA940"/>
<stop offset="0.49" stop-color="#2C9A41"/>
<stop offset="0.68" stop-color="#138F41"/>
<stop offset="0.85" stop-color="#058841"/>
<stop offset="1" stop-color="#008642"/>
</linearGradient>
<linearGradient id="paint3_linear_287_33" x1="5454.52" y1="3120.48" x2="3600.03" y2="3200.23" gradientUnits="userSpaceOnUse">
<stop stop-color="#8BC53F"/>
<stop offset="0.07" stop-color="#7ABD3F"/>
<stop offset="0.28" stop-color="#4EA940"/>
<stop offset="0.49" stop-color="#2C9A41"/>
<stop offset="0.68" stop-color="#138F41"/>
<stop offset="0.85" stop-color="#058841"/>
<stop offset="1" stop-color="#008642"/>
</linearGradient>
<linearGradient id="paint4_linear_287_33" x1="3542.62" y1="5104" x2="2639.54" y2="3513.37" gradientUnits="userSpaceOnUse">
<stop stop-color="#26A9E0"/>
<stop offset="0.19" stop-color="#2786C7"/>
<stop offset="0.42" stop-color="#2964AE"/>
<stop offset="0.64" stop-color="#2A4B9D"/>
<stop offset="0.84" stop-color="#2A3D92"/>
<stop offset="1" stop-color="#2B388F"/>
</linearGradient>
<linearGradient id="paint5_linear_287_33" x1="3693.78" y1="5018.4" x2="2790.37" y2="3427.74" gradientUnits="userSpaceOnUse">
<stop stop-color="#26A9E0"/>
<stop offset="0.19" stop-color="#2786C7"/>
<stop offset="0.42" stop-color="#2964AE"/>
<stop offset="0.64" stop-color="#2A4B9D"/>
<stop offset="0.84" stop-color="#2A3D92"/>
<stop offset="1" stop-color="#2B388F"/>
</linearGradient>
<linearGradient id="paint6_linear_287_33" x1="995.039" y1="4457.15" x2="1776.08" y2="2873.51" gradientUnits="userSpaceOnUse">
<stop stop-color="#BC1A8C"/>
<stop offset="0.06" stop-color="#B31B8C"/>
<stop offset="0.32" stop-color="#91238D"/>
<stop offset="0.58" stop-color="#78288F"/>
<stop offset="0.81" stop-color="#6A2B8F"/>
<stop offset="1" stop-color="#652D90"/>
</linearGradient>
<linearGradient id="paint7_linear_287_33" x1="1123.57" y1="4520.77" x2="1904.6" y2="2937.13" gradientUnits="userSpaceOnUse">
<stop stop-color="#BC1A8C"/>
<stop offset="0.06" stop-color="#B31B8C"/>
<stop offset="0.32" stop-color="#91238D"/>
<stop offset="0.58" stop-color="#78288F"/>
<stop offset="0.81" stop-color="#6A2B8F"/>
<stop offset="1" stop-color="#652D90"/>
</linearGradient>
<linearGradient id="paint8_linear_287_33" x1="132.959" y1="2124.55" x2="1959.42" y2="1859.12" gradientUnits="userSpaceOnUse">
<stop stop-color="#F5D834"/>
<stop offset="0.62" stop-color="#F8BB3C"/>
<stop offset="1" stop-color="#FAAF40"/>
</linearGradient>
<linearGradient id="paint9_linear_287_33" x1="140.966" y1="2179.84" x2="1967.44" y2="1914.78" gradientUnits="userSpaceOnUse">
<stop stop-color="#F5D834"/>
<stop offset="0.62" stop-color="#F8BB3C"/>
<stop offset="1" stop-color="#FAAF40"/>
</linearGradient>
<linearGradient id="paint10_linear_287_33" x1="2012.12" y1="111.714" x2="2992.12" y2="1586.39" gradientUnits="userSpaceOnUse">
<stop stop-color="#FAAF40"/>
<stop offset="0.05" stop-color="#F9A83E"/>
<stop offset="0.32" stop-color="#F58634"/>
<stop offset="0.57" stop-color="#F26D2D"/>
<stop offset="0.81" stop-color="#F05F29"/>
<stop offset="1" stop-color="#F05A28"/>
</linearGradient>
<linearGradient id="paint11_linear_287_33" x1="1920.51" y1="172.334" x2="2900.51" y2="1647.01" gradientUnits="userSpaceOnUse">
<stop stop-color="#FAAF40"/>
<stop offset="0.05" stop-color="#F9A83E"/>
<stop offset="0.32" stop-color="#F58634"/>
<stop offset="0.57" stop-color="#F26D2D"/>
<stop offset="0.81" stop-color="#F05F29"/>
<stop offset="1" stop-color="#F05A28"/>
</linearGradient>
</defs>
</svg>
